<?xml version="1.0" encoding="iso-8859-1"?>
<!-- Generator: Adobe Illustrator 19.0.0, SVG Export Plug-In . SVG Version: 6.00 Build 0)  -->
<svg version="1.1" id="Layer_1" xmlns="http://www.w3.org/2000/svg" xmlns:xlink="http://www.w3.org/1999/xlink" x="0px" y="0px"
	 viewBox="0 0 512 512" style="enable-background:new 0 0 512 512;" xml:space="preserve">
<path style="fill:#8C5549;" d="M470.745,116.587C496.839,156.7,512,204.581,512,256c0,141.384-114.616,256-256,256S0,397.384,0,256
	S114.616,0,256,0c79.53,0,150.589,36.265,197.543,93.161"/>
<circle style="fill:#A0665D;" cx="256" cy="256" r="209.085"/>
<path style="opacity:0.15;fill:#202020;enable-background:new    ;" d="M65.839,256c0-112.301,88.541-203.911,199.622-208.86
	c-3.137-0.139-6.289-0.221-9.461-0.221C140.526,46.917,46.917,140.528,46.917,256c0,115.474,93.609,209.085,209.083,209.085
	c3.172,0,6.324-0.082,9.461-0.224C154.38,459.913,65.839,368.303,65.839,256z"/>
<path style="fill:#B77670;" d="M431.85,269.174l-12.609-9.901l12.609-9.902c3.626-2.848,4.256-8.095,1.409-11.721
	c-2.847-3.626-8.095-4.259-11.72-1.409l-15.812,12.417l-36.624-28.763l36.694-28.816c1.337,0.813,2.824,1.232,4.313,1.232
	c2.474,0,4.924-1.095,6.57-3.193c1.772-2.254,2.195-5.137,1.39-7.68l7.697-6.044c3.626-2.848,4.257-8.095,1.41-11.721
	c-2.848-3.626-8.095-4.256-11.721-1.409l-9.728,7.639l-36.626-28.763l7.121-5.593c3.626-2.848,4.257-8.096,1.41-11.721
	c-2.847-3.626-8.095-4.258-11.72-1.409l-10.326,8.109l-36.626-28.763l16.742-13.148c3.626-2.848,4.256-8.095,1.41-11.721
	c-2.848-3.626-8.095-4.258-11.721-1.409l-19.946,15.665L259.355,54.95c-3.626-2.848-8.873-2.217-11.72,1.409
	c-2.847,3.626-2.217,8.874,1.409,11.721l42.889,33.681l-18.391,14.441c-0.006,0.007-0.013,0.009-0.02,0.016l-18.219,14.308
	l-15.022-11.796l-0.002-0.002l-21.602-16.965l10.795-8.478c3.626-2.848,4.256-8.095,1.409-11.719
	c-2.847-3.629-8.095-4.258-11.72-1.411l-13.999,10.996l-19.947-15.665c-3.625-2.848-8.873-2.217-11.72,1.409
	s-2.217,8.874,1.409,11.721l16.744,13.148l-36.626,28.763l-10.325-8.109c-3.625-2.848-8.873-2.217-11.72,1.409
	c-2.848,3.626-2.217,8.874,1.409,11.721l7.121,5.593L95.337,177.4c-3.626,2.848-4.257,8.095-1.41,11.719
	c1.647,2.098,4.097,3.193,6.571,3.193c1.489,0,2.976-0.42,4.313-1.234l36.694,28.818l-36.624,28.763l-15.812-12.417
	c-3.625-2.848-8.873-2.217-11.72,1.409c-2.848,3.626-2.217,8.874,1.409,11.721l12.609,9.902l-12.609,9.901
	c-3.626,2.848-4.256,8.095-1.409,11.721c1.646,2.098,4.096,3.191,6.569,3.191c1.804,0,3.622-0.58,5.151-1.783l15.812-12.417
	l36.624,28.763l-34.972,27.465l-12.981-10.195c-3.626-2.846-8.873-2.217-11.72,1.411c-2.848,3.624-2.217,8.872,1.409,11.719
	l9.778,7.678l-6.048,4.75c-3.626,2.848-4.256,8.095-1.409,11.719c1.646,2.098,4.096,3.193,6.569,3.193
	c1.804,0,3.622-0.582,5.151-1.783l9.252-7.265l36.626,28.763l-4.338,3.407c-3.626,2.848-4.257,8.095-1.41,11.721
	c1.647,2.098,4.097,3.191,6.571,3.191c1.804,0,3.622-0.58,5.15-1.783l7.541-5.921l36.626,28.763l-17.335,13.613
	c-3.626,2.848-4.256,8.095-1.409,11.721c1.647,2.098,4.096,3.191,6.57,3.191c1.804,0,3.622-0.58,5.151-1.782l20.539-16.128
	l32.342,25.397c1.529,1.2,3.346,1.783,5.15,1.783c2.474,0,4.924-1.095,6.571-3.193c2.848-3.624,2.216-8.872-1.41-11.719
	l-29.138-22.883l34.972-27.465l36.626,28.763l-1.647,1.296c-3.626,2.848-4.256,8.095-1.409,11.719
	c1.645,2.098,4.096,3.193,6.569,3.193c1.804,0,3.622-0.582,5.151-1.783l54.993-43.189l5.888,4.624
	c1.529,1.202,3.346,1.783,5.15,1.783c2.474,0,4.924-1.093,6.571-3.191c2.848-3.626,2.215-8.874-1.41-11.721l-2.684-2.107
	l36.626-28.763l7.595,5.965c1.53,1.2,3.347,1.783,5.151,1.783c2.474,0,4.924-1.095,6.57-3.193c2.848-3.624,2.217-8.872-1.409-11.719
	l-5.463-4.291c0.905-2.596,0.514-5.583-1.311-7.905c-2.69-3.426-7.522-4.174-11.105-1.845l-36.657-28.787l36.624-28.763
	l15.812,12.417c1.529,1.202,3.347,1.783,5.151,1.783c2.474,0,4.924-1.093,6.569-3.191
	C436.106,277.269,435.476,272.022,431.85,269.174z M392.211,180.52l-36.626,28.763l-36.626-28.765l36.626-28.763L392.211,180.52z
	 M241.786,298.65l-36.626,28.763l-36.626-28.763l36.625-28.763L241.786,298.65z M168.535,219.896l36.626-28.763l36.626,28.761
	l-36.627,28.765L168.535,219.896z M218.676,259.271l36.626-28.763l36.628,28.763l-36.628,28.766L218.676,259.271z M305.446,269.887
	l36.624,28.763l-36.626,28.763l-36.625-28.763L305.446,269.887z M268.819,219.894l36.625-28.761l36.626,28.763l-36.624,28.763
	L268.819,219.894z M280.626,131.868c0.004-0.004,0.009-0.007,0.013-0.009l24.804-19.48l36.624,28.763l-36.624,28.763l-36.626-28.763
	L280.626,131.868z M291.926,180.518l-36.624,28.763l-36.625-28.763l36.625-28.763L291.926,180.518z M205.161,112.378l19.22,15.094
	c0.002,0.002,0.002,0.002,0.004,0.004l17.4,13.665l-36.624,28.761l-36.625-28.763L205.161,112.378z M118.393,180.52l36.626-28.765
	l36.626,28.763l-36.626,28.765L118.393,180.52z M118.393,259.273l36.626-28.763l36.624,28.763l-36.624,28.761L118.393,259.273z
	 M120.046,336.728l34.974-27.463l36.626,28.763l-34.974,27.465L120.046,336.728z M206.816,404.87l-36.626-28.763l34.972-27.463
	l36.626,28.763L206.816,404.87z M218.676,338.028l36.626-28.763l36.626,28.763l-36.626,28.763L218.676,338.028z M305.444,406.17
	l-36.626-28.763l36.626-28.766l36.626,28.766L305.444,406.17z M392.211,338.028l-36.625,28.763l-36.627-28.763l36.626-28.763
	L392.211,338.028z M355.585,288.034l-30.872-24.243c-0.004-0.004-0.009-0.009-0.016-0.013l-5.737-4.507l34.126-26.798l0,0
	l2.499-1.963l36.625,28.763L355.585,288.034z"/>
<g>
</g>
<g>
</g>
<g>
</g>
<g>
</g>
<g>
</g>
<g>
</g>
<g>
</g>
<g>
</g>
<g>
</g>
<g>
</g>
<g>
</g>
<g>
</g>
<g>
</g>
<g>
</g>
<g>
</g>
</svg>
